<?xml version="1.0" encoding="UTF-8" standalone="no"?>
<!-- Generator: Adobe Illustrator 22.0.1, SVG Export Plug-In . SVG Version: 6.00 Build 0)  -->

<svg
   xmlns:dc="http://purl.org/dc/elements/1.1/"
   xmlns:cc="http://creativecommons.org/ns#"
   xmlns:rdf="http://www.w3.org/1999/02/22-rdf-syntax-ns#"
   xmlns:svg="http://www.w3.org/2000/svg"
   xmlns="http://www.w3.org/2000/svg"
   xmlns:xlink="http://www.w3.org/1999/xlink"
   xmlns:sodipodi="http://sodipodi.sourceforge.net/DTD/sodipodi-0.dtd"
   xmlns:inkscape="http://www.inkscape.org/namespaces/inkscape"
   version="1.1"
   id="Layer_1"
   x="0px"
   y="0px"
   viewBox="0 0 738 852"
   style="enable-background:new 0 0 738 852;"
   xml:space="preserve"
   inkscape:version="0.91+devel+osxmenu r12922"
   sodipodi:docname="py-pkgs-logo-hex.svg"
   inkscape:export-filename="/Users/tbeuzen/Documents/Projects/hex/py-pkgs-logo.png"
   inkscape:export-xdpi="300"
   inkscape:export-ydpi="300"><metadata
     id="metadata5188"><rdf:RDF><cc:Work
         rdf:about=""><dc:format>image/svg+xml</dc:format><dc:type
           rdf:resource="http://purl.org/dc/dcmitype/StillImage" /><dc:title>modelr</dc:title></cc:Work></rdf:RDF></metadata><defs
     id="defs5186"><linearGradient
       inkscape:collect="always"
       xlink:href="#linearGradient9515"
       id="linearGradient4431"
       gradientUnits="userSpaceOnUse"
       x1="55.549179"
       y1="77.070274"
       x2="110.14919"
       y2="131.85291" /><linearGradient
       inkscape:collect="always"
       id="linearGradient9515"><stop
         style="stop-color:#387eb8;stop-opacity:1"
         offset="0"
         id="stop9517" /><stop
         style="stop-color:#366994;stop-opacity:1"
         offset="1"
         id="stop9519" /></linearGradient><linearGradient
       inkscape:collect="always"
       xlink:href="#linearGradient11301"
       id="linearGradient4433"
       gradientUnits="userSpaceOnUse"
       x1="89.136749"
       y1="111.92053"
       x2="147.77737"
       y2="168.1012" /><linearGradient
       inkscape:collect="always"
       id="linearGradient11301"><stop
         style="stop-color:#ffe052;stop-opacity:1"
         offset="0"
         id="stop11303" /><stop
         style="stop-color:#ffc331;stop-opacity:1"
         offset="1"
         id="stop11305" /></linearGradient><linearGradient
       inkscape:collect="always"
       xlink:href="#linearGradient9515"
       id="linearGradient5996"
       gradientUnits="userSpaceOnUse"
       x1="55.549179"
       y1="77.070274"
       x2="110.14919"
       y2="131.85291" /><linearGradient
       inkscape:collect="always"
       xlink:href="#linearGradient11301"
       id="linearGradient5998"
       gradientUnits="userSpaceOnUse"
       x1="89.136749"
       y1="111.92053"
       x2="147.77737"
       y2="168.1012" /></defs><sodipodi:namedview
     pagecolor="#ffffff"
     bordercolor="#666666"
     borderopacity="1"
     objecttolerance="10"
     gridtolerance="10"
     guidetolerance="10"
     inkscape:pageopacity="0"
     inkscape:pageshadow="2"
     inkscape:window-width="1328"
     inkscape:window-height="690"
     id="namedview5184"
     showgrid="false"
     inkscape:snap-global="true"
     inkscape:snap-bbox="true"
     inkscape:object-paths="true"
     inkscape:snap-intersection-paths="true"
     inkscape:snap-smooth-nodes="true"
     inkscape:zoom="0.40998915"
     inkscape:cx="356.41071"
     inkscape:cy="453.07594"
     inkscape:window-x="96"
     inkscape:window-y="84"
     inkscape:window-maximized="0"
     inkscape:current-layer="Layer_1" /><style
     type="text/css"
     id="style4714">
	.st0{fill:#141227;}
	.st1{fill:#404040;}
	.st2{opacity:0.94;}
	.st3{fill:#FFFFFF;}
	.st4{opacity:0.8;fill:#F2F2F2;enable-background:new    ;}
	.st5{fill:#F7A238;}
	.st6{fill:#00A5DC;}
	.st7{fill:#164F86;}
	.st8{fill:#36A85D;}
	.st9{fill:#DB1F26;}
	.st10{fill:#FFF34D;}
	.st11{fill:#F26524;}
	.st12{fill:#B57AB4;}
	.st13{fill:#EF4782;}
	.st14{fill:#0088C5;}
	.st15{fill:#BCBCBC;}
	.st16{fill:none;stroke:#FFF34D;stroke-width:7;stroke-miterlimit:10;}
	.st17{fill:#F2F2F2;}
</style><title
     id="title4716">modelr</title><polygon
     class="st0"
     points="19.1,628 369,830 718.9,628 718.9,224 369,22 369,22 19.1,224 "
     id="polygon4718"
     style="fill:#334864;fill-opacity:1" /><path
     class="st1"
     d="M736.4,638.4V214.1l-29.3-16.9L429.3,36.8L369,2l-60.3,34.8L30.9,197.2L1.6,214.1v424.3l29.3,16.9l281.3,162.4  l56.9,32.8l56.9-32.8l281.3-162.4L736.4,638.4z M30.9,622.5V232.1L369,36.8l0,0l338.1,195.2v390.4L369,817.7L30.9,622.5z"
     id="path4720"
     style="fill:#1f2b3c;opacity:0.99;fill-opacity:1" /><g
     id="g4676"
     transform="matrix(4.2575306,0,0,4.2575306,-1071.1233,-431.2576)"><path
       d="m 383.34486,209.06453 -45.09178,26.03375 -45.09178,-26.03375 0,-52.06751 45.09178,-26.03375 45.09178,26.03375 z"
       inkscape:randomized="0"
       inkscape:rounded="0"
       inkscape:flatsided="true"
       sodipodi:arg2="1.0471976"
       sodipodi:arg1="0.52359878"
       sodipodi:r2="45.091785"
       sodipodi:r1="52.067505"
       sodipodi:cy="183.03078"
       sodipodi:cx="338.25308"
       sodipodi:sides="6"
       id="path4340"
       style="opacity:1;fill:#ce936b;fill-opacity:1;fill-rule:nonzero;stroke:#000000;stroke-width:0.5;stroke-linecap:round;stroke-linejoin:round;stroke-miterlimit:4;stroke-dasharray:none;stroke-opacity:1"
       sodipodi:type="star" /><path
       inkscape:connector-curvature="0"
       id="path4457"
       d="m 338.25325,183.03068 22.54591,-13.01677 -4.5566,-2.65975 z"
       style="fill:#57361f;fill-opacity:1;fill-rule:evenodd;stroke:#000000;stroke-width:0.5;stroke-linecap:butt;stroke-linejoin:miter;stroke-miterlimit:4;stroke-dasharray:none;stroke-opacity:1" /><path
       sodipodi:nodetypes="cccccccccccc"
       inkscape:connector-curvature="0"
       id="rect4483"
       transform="scale(0.26458333)"
       d="m 1374.7617,636.15625 -22.2226,12.83203 0,30.0053 2.7778,-4.19329 2.7779,0.98528 2.7778,-4.19329 2.7778,0.98529 2.7778,-4.19329 2.7779,0.98528 2.7778,-4.19329 2.7778,0.98528 z"
       style="opacity:0.8;fill:#f9f9f9;fill-opacity:1;fill-rule:nonzero;stroke:none;stroke-width:3.77952766;stroke-linecap:round;stroke-linejoin:round;stroke-miterlimit:4;stroke-dasharray:none;stroke-opacity:1" /><path
       inkscape:connector-curvature="0"
       id="path4347"
       d="m 338.25307,235.09828 1.8e-4,-52.0676 45.09161,-26.03366"
       style="fill:none;fill-rule:evenodd;stroke:#000000;stroke-width:0.5;stroke-linecap:butt;stroke-linejoin:miter;stroke-miterlimit:4;stroke-dasharray:none;stroke-opacity:1" /><g
       transform="matrix(0.27168708,-0.15685861,0,0.27168708,217.19313,195.64643)"
       id="g4423"
       inkscape:label="Calque 1"><g
         transform="translate(428.42338,184.2561)"
         id="g4425"><path
           id="path4427"
           d="M 99.75,67.46875 C 71.718268,67.468752 73.46875,79.625 73.46875,79.625 L 73.5,92.21875 l 26.75,0 0,3.78125 -37.375,0 c 0,0 -17.9375,-2.034276 -17.9375,26.25 -2e-6,28.28427 15.65625,27.28125 15.65625,27.28125 l 9.34375,0 0,-13.125 c 0,0 -0.503652,-15.65625 15.40625,-15.65625 15.9099,0 26.53125,0 26.53125,0 0,0 14.90625,0.24096 14.90625,-14.40625 0,-14.647206 0,-24.21875 0,-24.21875 0,-2e-6 2.26318,-14.65625 -27.03125,-14.65625 z M 85,75.9375 c 2.661429,-2e-6 4.8125,2.151071 4.8125,4.8125 2e-6,2.661429 -2.151071,4.8125 -4.8125,4.8125 -2.661429,2e-6 -4.8125,-2.151071 -4.8125,-4.8125 -2e-6,-2.661429 2.151071,-4.8125 4.8125,-4.8125 z"
           style="color:#000000;display:inline;overflow:visible;visibility:visible;opacity:1;fill:url(#linearGradient5996);fill-opacity:1;fill-rule:nonzero;stroke:none;stroke-width:1;stroke-linecap:butt;stroke-linejoin:miter;stroke-miterlimit:4;stroke-dasharray:none;stroke-dashoffset:0;stroke-opacity:1;marker:none;marker-start:none;marker-mid:none;marker-end:none"
           inkscape:connector-curvature="0" /><path
           style="color:#000000;display:inline;overflow:visible;visibility:visible;opacity:1;fill:url(#linearGradient5998);fill-opacity:1;fill-rule:nonzero;stroke:none;stroke-width:1;stroke-linecap:butt;stroke-linejoin:miter;stroke-miterlimit:4;stroke-dasharray:none;stroke-dashoffset:0;stroke-opacity:1;marker:none;marker-start:none;marker-mid:none;marker-end:none"
           d="m 100.5461,177.31485 c 28.03174,0 26.28125,-12.15625 26.28125,-12.15625 l -0.0312,-12.59375 -26.75,0 0,-3.78125 37.375,0 c 0,0 17.9375,2.03427 17.9375,-26.25001 10e-6,-28.284267 -15.65625,-27.281247 -15.65625,-27.281247 l -9.34375,0 0,13.124997 c 0,0 0.50366,15.65625 -15.40625,15.65625 -15.909902,0 -26.531252,0 -26.531252,0 0,0 -14.90625,-0.24096 -14.90625,14.40626 0,14.6472 0,24.21875 0,24.21875 0,0 -2.26318,14.65625 27.031252,14.65625 z m 14.75,-8.46875 c -2.66143,0 -4.8125,-2.15107 -4.8125,-4.8125 0,-2.66143 2.15107,-4.8125 4.8125,-4.8125 2.66143,0 4.8125,2.15107 4.8125,4.8125 1e-5,2.66143 -2.15107,4.8125 -4.8125,4.8125 z"
           id="path4429"
           inkscape:connector-curvature="0" /></g></g><g
       transform="matrix(0.27168708,0.15685861,0,0.27168708,172.1013,29.824469)"
       id="g4435"
       inkscape:label="Calque 1"><g
         transform="translate(428.42338,184.2561)"
         id="g4437"><path
           id="path4439"
           d="M 99.75,67.46875 C 71.718268,67.468752 73.46875,79.625 73.46875,79.625 L 73.5,92.21875 l 26.75,0 0,3.78125 -37.375,0 c 0,0 -17.9375,-2.034276 -17.9375,26.25 -2e-6,28.28427 15.65625,27.28125 15.65625,27.28125 l 9.34375,0 0,-13.125 c 0,0 -0.503652,-15.65625 15.40625,-15.65625 15.9099,0 26.53125,0 26.53125,0 0,0 14.90625,0.24096 14.90625,-14.40625 0,-14.647206 0,-24.21875 0,-24.21875 0,-2e-6 2.26318,-14.65625 -27.03125,-14.65625 z M 85,75.9375 c 2.661429,-2e-6 4.8125,2.151071 4.8125,4.8125 2e-6,2.661429 -2.151071,4.8125 -4.8125,4.8125 -2.661429,2e-6 -4.8125,-2.151071 -4.8125,-4.8125 -2e-6,-2.661429 2.151071,-4.8125 4.8125,-4.8125 z"
           style="color:#000000;display:inline;overflow:visible;visibility:visible;opacity:1;fill:url(#linearGradient4431);fill-opacity:1;fill-rule:nonzero;stroke:none;stroke-width:1;stroke-linecap:butt;stroke-linejoin:miter;stroke-miterlimit:4;stroke-dasharray:none;stroke-dashoffset:0;stroke-opacity:1;marker:none;marker-start:none;marker-mid:none;marker-end:none"
           inkscape:connector-curvature="0" /><path
           style="color:#000000;display:inline;overflow:visible;visibility:visible;opacity:1;fill:url(#linearGradient4433);fill-opacity:1;fill-rule:nonzero;stroke:none;stroke-width:1;stroke-linecap:butt;stroke-linejoin:miter;stroke-miterlimit:4;stroke-dasharray:none;stroke-dashoffset:0;stroke-opacity:1;marker:none;marker-start:none;marker-mid:none;marker-end:none"
           d="m 100.5461,177.31485 c 28.03174,0 26.28125,-12.15625 26.28125,-12.15625 l -0.0312,-12.59375 -26.75,0 0,-3.78125 37.375,0 c 0,0 17.9375,2.03427 17.9375,-26.25001 10e-6,-28.284267 -15.65625,-27.281247 -15.65625,-27.281247 l -9.34375,0 0,13.124997 c 0,0 0.50366,15.65625 -15.40625,15.65625 -15.909902,0 -26.531252,0 -26.531252,0 0,0 -14.90625,-0.24096 -14.90625,14.40626 0,14.6472 0,24.21875 0,24.21875 0,0 -2.26318,14.65625 27.031252,14.65625 z m 14.75,-8.46875 c -2.66143,0 -4.8125,-2.15107 -4.8125,-4.8125 0,-2.66143 2.15107,-4.8125 4.8125,-4.8125 2.66143,0 4.8125,2.15107 4.8125,4.8125 1e-5,2.66143 -2.15107,4.8125 -4.8125,4.8125 z"
           id="path4441"
           inkscape:connector-curvature="0" /></g></g><path
       transform="scale(0.26458333)"
       id="path4496"
       d="m 1204.1387,537.875 -10.9141,6.30078 170.4258,98.39453 11.0684,-6.39062 -170.5801,-98.30469 z"
       style="opacity:0.8;fill:#f9f9f9;fill-opacity:1;fill-rule:nonzero;stroke:none;stroke-width:4.2747488;stroke-linecap:round;stroke-linejoin:round;stroke-miterlimit:4;stroke-dasharray:none;stroke-opacity:1"
       inkscape:connector-curvature="0" /><path
       id="path4607"
       transform="scale(0.26458333)"
       d="m 1352.5352,537.76172 -170.4219,98.39453 22.2246,12.83203 170.4238,-98.39453 -22.2265,-12.83203 z"
       style="opacity:0.8;fill:#f9f9f9;fill-opacity:1;fill-rule:nonzero;stroke:none;stroke-width:3.77952766;stroke-linecap:round;stroke-linejoin:round;stroke-miterlimit:4;stroke-dasharray:none;stroke-opacity:1"
       inkscape:connector-curvature="0" /><path
       inkscape:connector-curvature="0"
       id="path4648"
       d="m 338.25328,130.96255 -22.54592,13.01729 45.0918,26.03355 22.54592,-13.01677 -45.0918,-26.03407 z"
       style="opacity:1;fill:none;fill-opacity:1;fill-rule:nonzero;stroke:#000000;stroke-width:0.5;stroke-linecap:round;stroke-linejoin:round;stroke-miterlimit:4;stroke-dasharray:none;stroke-opacity:1" /><path
       sodipodi:nodetypes="ccccc"
       inkscape:connector-curvature="0"
       id="path4447"
       d="m 314.31212,139.45594 -21.15069,17.54121 45.09182,26.03353 21.15069,-17.54068 z"
       style="opacity:1;fill:#ce936b;fill-opacity:1;fill-rule:nonzero;stroke:#000000;stroke-width:0.5;stroke-linecap:round;stroke-linejoin:round;stroke-miterlimit:4;stroke-dasharray:none;stroke-opacity:1" /><path
       sodipodi:nodetypes="ccccc"
       inkscape:connector-curvature="0"
       id="path4527"
       d="m 314.08534,139.58822 -2.71831,2.18536 45.02672,25.99635 2.71777,-2.18536 z"
       style="opacity:0.8;fill:#f9f9f9;fill-opacity:1;fill-rule:nonzero;stroke:none;stroke-width:1;stroke-linecap:round;stroke-linejoin:round;stroke-miterlimit:4;stroke-dasharray:none;stroke-opacity:1" /><path
       style="opacity:0.8;fill:#f9f9f9;fill-opacity:1;fill-rule:nonzero;stroke:none;stroke-width:1;stroke-linecap:round;stroke-linejoin:round;stroke-miterlimit:4;stroke-dasharray:none;stroke-opacity:1"
       d="m 312.76747,168.31634 5.87973,3.39514 0,7.9389 -0.73496,-1.10947 -0.73499,0.26069 -0.73496,-1.10948 -0.73496,0.26069 -0.73496,-1.10947 -0.73498,0.26069 -0.73496,-1.10948 -0.73496,0.26069 z"
       id="path4586"
       inkscape:connector-curvature="0"
       sodipodi:nodetypes="cccccccccccc" /><path
       sodipodi:nodetypes="ccccc"
       inkscape:connector-curvature="0"
       id="path4590"
       d="m 318.6472,171.71148 21.0561,-17.44603 -5.88026,-3.39514 -21.05557,17.44603 c 5.88026,3.39514 0,0 5.87973,3.39514 z"
       style="opacity:0.8;fill:#f9f9f9;fill-opacity:1;fill-rule:nonzero;stroke:none;stroke-width:1;stroke-linecap:round;stroke-linejoin:round;stroke-miterlimit:4;stroke-dasharray:none;stroke-opacity:1" /><path
       style="opacity:1;fill:none;fill-opacity:1;fill-rule:nonzero;stroke:#000000;stroke-width:0.5;stroke-linecap:round;stroke-linejoin:round;stroke-miterlimit:4;stroke-dasharray:none;stroke-opacity:1"
       d="m 314.31212,139.45594 -21.15069,17.54121 45.09182,26.03353 21.15069,-17.54068 z"
       id="path4659"
       inkscape:connector-curvature="0"
       sodipodi:nodetypes="ccccc" /></g><text
     xml:space="preserve"
     style="font-style:normal;font-variant:normal;font-weight:normal;font-stretch:normal;font-size:40px;line-height:125%;font-family:'SF Pro Display';-inkscape-font-specification:'SF Pro Display';letter-spacing:0px;word-spacing:0px;fill:#000000;fill-opacity:1;stroke:none;stroke-width:1px;stroke-linecap:butt;stroke-linejoin:miter;stroke-opacity:1"
     x="213.89188"
     y="668.21051"
     id="text19861"
     sodipodi:linespacing="125%"><tspan
       sodipodi:role="line"
       id="tspan19863"
       x="213.89188"
       y="668.21051"
       style="font-style:normal;font-variant:normal;font-weight:600;font-stretch:normal;font-size:80px;font-family:Raleway;-inkscape-font-specification:'Raleway Semi-Bold';fill:#ffffff">py-pkgs</tspan></text>
</svg>