<?xml version="1.0" encoding="UTF-8" standalone="no"?>
<svg
   xmlns:dc="http://purl.org/dc/elements/1.1/"
   xmlns:cc="http://creativecommons.org/ns#"
   xmlns:rdf="http://www.w3.org/1999/02/22-rdf-syntax-ns#"
   xmlns:svg="http://www.w3.org/2000/svg"
   xmlns="http://www.w3.org/2000/svg"
   xmlns:xlink="http://www.w3.org/1999/xlink"
   xmlns:sodipodi="http://sodipodi.sourceforge.net/DTD/sodipodi-0.dtd"
   xmlns:inkscape="http://www.inkscape.org/namespaces/inkscape"
   version="1.1"
   id="Layer_1"
   x="0px"
   y="0px"
   viewBox="0 0 600 600"
   xml:space="preserve"
   inkscape:version="1.0.2 (e86c8708, 2021-01-15)"
   sodipodi:docname="pkg_nesting.svg"
   inkscape:export-filename="/Users/tomasbeuzen/GitHub/py-pkgs/py-pkgs/py-pkgs/images/pkg_nesting.png"
   inkscape:export-xdpi="200"
   inkscape:export-ydpi="200"
   width="600"
   height="600"><metadata
   id="metadata5188"><rdf:RDF><cc:Work
       rdf:about=""><dc:format>image/svg+xml</dc:format><dc:type
         rdf:resource="http://purl.org/dc/dcmitype/StillImage" /><dc:title>modelr</dc:title></cc:Work></rdf:RDF></metadata><defs
   id="defs5186"><inkscape:path-effect
     effect="powerclip"
     id="path-effect1024"
     is_visible="true"
     lpeversion="1"
     inverse="true"
     flatten="false"
     hide_clip="false"
     message="Use fill-rule evenodd on &lt;b&gt;fill and stroke&lt;/b&gt; dialog if no flatten result after convert clip to paths." /><linearGradient
     inkscape:collect="always"
     id="linearGradient990"><stop
       style="stop-color:#412817;stop-opacity:1;"
       offset="0"
       id="stop986" /><stop
       style="stop-color:#090909;stop-opacity:0.38585209"
       offset="1"
       id="stop988" /></linearGradient><linearGradient
     inkscape:collect="always"
     xlink:href="#linearGradient9515"
     id="linearGradient4431"
     gradientUnits="userSpaceOnUse"
     x1="55.549179"
     y1="77.070274"
     x2="110.14919"
     y2="131.85291" /><linearGradient
     inkscape:collect="always"
     id="linearGradient9515"><stop
       style="stop-color:#387eb8;stop-opacity:1"
       offset="0"
       id="stop9517" /><stop
       style="stop-color:#366994;stop-opacity:1"
       offset="1"
       id="stop9519" /></linearGradient><linearGradient
     inkscape:collect="always"
     xlink:href="#linearGradient11301"
     id="linearGradient4433"
     gradientUnits="userSpaceOnUse"
     x1="89.136749"
     y1="111.92053"
     x2="147.77737"
     y2="168.1012" /><linearGradient
     inkscape:collect="always"
     id="linearGradient11301"><stop
       style="stop-color:#ffe052;stop-opacity:1"
       offset="0"
       id="stop11303" /><stop
       style="stop-color:#ffc331;stop-opacity:1"
       offset="1"
       id="stop11305" /></linearGradient><linearGradient
     inkscape:collect="always"
     xlink:href="#linearGradient9515"
     id="linearGradient5996"
     gradientUnits="userSpaceOnUse"
     x1="55.549179"
     y1="77.070274"
     x2="110.14919"
     y2="131.85291" /><linearGradient
     inkscape:collect="always"
     xlink:href="#linearGradient11301"
     id="linearGradient5998"
     gradientUnits="userSpaceOnUse"
     x1="89.136749"
     y1="111.92053"
     x2="147.77737"
     y2="168.1012" /><linearGradient
     inkscape:collect="always"
     xlink:href="#linearGradient9515"
     id="linearGradient916"
     gradientUnits="userSpaceOnUse"
     x1="55.549179"
     y1="77.070274"
     x2="110.14919"
     y2="131.85291" /><linearGradient
     inkscape:collect="always"
     xlink:href="#linearGradient11301"
     id="linearGradient918"
     gradientUnits="userSpaceOnUse"
     x1="89.136749"
     y1="111.92053"
     x2="147.77737"
     y2="168.1012" /><linearGradient
     inkscape:collect="always"
     xlink:href="#linearGradient9515"
     id="linearGradient920"
     gradientUnits="userSpaceOnUse"
     x1="55.549179"
     y1="77.070274"
     x2="110.14919"
     y2="131.85291" /><linearGradient
     inkscape:collect="always"
     xlink:href="#linearGradient11301"
     id="linearGradient922"
     gradientUnits="userSpaceOnUse"
     x1="89.136749"
     y1="111.92053"
     x2="147.77737"
     y2="168.1012" /><linearGradient
     inkscape:collect="always"
     xlink:href="#linearGradient990"
     id="linearGradient992"
     x1="426.00073"
     y1="463.34024"
     x2="425.99985"
     y2="241.66258"
     gradientUnits="userSpaceOnUse"
     gradientTransform="translate(-142.90633,-165.91599)" /><clipPath
     clipPathUnits="userSpaceOnUse"
     id="clipPath1020"><path
       style="display:none;fill:#ff0000;stroke:#000000;stroke-width:0.469754px;stroke-linecap:butt;stroke-linejoin:miter;stroke-opacity:1"
       d="m 338.25313,213.86388 15.09547,12.51899 7.54191,16.40919 -23.24505,-2.22504 -19.80175,3.6429 5.31396,-17.82698 z"
       id="path1022"
       sodipodi:nodetypes="ccccccc" /><path
       id="lpe_path-effect1024"
       style="fill:#ff0000;stroke:#000000;stroke-width:0.469754px;stroke-linecap:butt;stroke-linejoin:miter;stroke-opacity:1"
       class="powerclip"
       d="M 287.9113,125.71255 H 388.59506 V 240.34828 H 287.9113 Z m 50.34183,88.15133 -15.09546,12.51906 -5.31396,17.82698 19.80175,-3.6429 23.24505,2.22504 -7.54191,-16.40919 z" /></clipPath></defs><sodipodi:namedview
   pagecolor="#ffffff"
   bordercolor="#666666"
   borderopacity="1"
   objecttolerance="10"
   gridtolerance="10"
   guidetolerance="10"
   inkscape:pageopacity="0"
   inkscape:pageshadow="2"
   inkscape:window-width="1727"
   inkscape:window-height="885"
   id="namedview5184"
   showgrid="false"
   inkscape:snap-global="true"
   inkscape:snap-bbox="true"
   inkscape:object-paths="true"
   inkscape:snap-intersection-paths="true"
   inkscape:snap-smooth-nodes="true"
   inkscape:zoom="0.57981222"
   inkscape:cx="281.3601"
   inkscape:cy="233.75455"
   inkscape:window-x="50"
   inkscape:window-y="30"
   inkscape:window-maximized="0"
   inkscape:current-layer="Layer_1"
   inkscape:document-rotation="0"
   units="px"
   fit-margin-top="0"
   fit-margin-left="0"
   fit-margin-right="0"
   fit-margin-bottom="0" /><style
   type="text/css"
   id="style4714">
	.st0{fill:#141227;}
	.st1{fill:#404040;}
	.st2{opacity:0.94;}
	.st3{fill:#FFFFFF;}
	.st4{opacity:0.8;fill:#F2F2F2;enable-background:new    ;}
	.st5{fill:#F7A238;}
	.st6{fill:#00A5DC;}
	.st7{fill:#164F86;}
	.st8{fill:#36A85D;}
	.st9{fill:#DB1F26;}
	.st10{fill:#FFF34D;}
	.st11{fill:#F26524;}
	.st12{fill:#B57AB4;}
	.st13{fill:#EF4782;}
	.st14{fill:#0088C5;}
	.st15{fill:#BCBCBC;}
	.st16{fill:none;stroke:#FFF34D;stroke-width:7;stroke-miterlimit:10;}
	.st17{fill:#F2F2F2;}
</style><title
   id="title4716">modelr</title>
<g
   id="g1066"
   transform="translate(16.906332,39.915989)"><path
     inkscape:randomized="0"
     inkscape:rounded="0"
     inkscape:flatsided="true"
     sodipodi:arg2="1.0471976"
     sodipodi:arg1="0.52359878"
     sodipodi:r2="191.97966"
     sodipodi:r1="221.679"
     sodipodi:cy="297.42465"
     sodipodi:cx="283.09366"
     sodipodi:sides="6"
     id="path4340"
     style="fill:#ce936b;fill-opacity:1;fill-rule:nonzero;stroke:#000000;stroke-width:2.12877;stroke-linecap:round;stroke-linejoin:round;stroke-miterlimit:4;stroke-dasharray:none;stroke-opacity:1"
     sodipodi:type="star"
     d="m 475.0733,408.26415 -191.97964,110.8395 -191.979648,-110.8395 10e-7,-221.679 L 283.09366,75.745651 475.07331,186.58515 Z" /><path
     inkscape:connector-curvature="0"
     id="path4347"
     d="m 283.09364,519.10365 7.6e-4,-221.6794 191.97891,-110.8391"
     style="fill:none;fill-rule:evenodd;stroke:#000000;stroke-width:2.12877;stroke-linecap:butt;stroke-linejoin:miter;stroke-miterlimit:4;stroke-dasharray:none;stroke-opacity:1" /><path
     sodipodi:nodetypes="cccccccccccc"
     inkscape:connector-curvature="0"
     id="rect4483"
     d="m 391.60085,234.77748 -25.03313,14.45492 v 33.80011 l 3.12912,-4.72362 3.12922,1.10989 3.12912,-4.72362 3.12911,1.1099 3.12911,-4.72362 3.12923,1.10989 3.12911,-4.72362 3.12911,1.10989 z"
     style="opacity:0.8;fill:#f9f9f9;fill-opacity:1;fill-rule:nonzero;stroke:none;stroke-width:4.25753;stroke-linecap:round;stroke-linejoin:round;stroke-miterlimit:4;stroke-dasharray:none;stroke-opacity:1" /><g
     transform="matrix(1.1567161,0.66783033,0,1.1567161,-424.30261,-354.85588)"
     id="g4435"
     inkscape:label="Calque 1"><g
       transform="translate(428.42338,184.2561)"
       id="g4437"><path
         id="path4439"
         d="M 99.75,67.46875 C 71.718268,67.468752 73.46875,79.625 73.46875,79.625 L 73.5,92.21875 h 26.75 V 96 H 62.875 c 0,0 -17.9375,-2.034276 -17.9375,26.25 -2e-6,28.28427 15.65625,27.28125 15.65625,27.28125 h 9.34375 v -13.125 c 0,0 -0.503652,-15.65625 15.40625,-15.65625 15.9099,0 26.53125,0 26.53125,0 0,0 14.90625,0.24096 14.90625,-14.40625 0,-14.647206 0,-24.21875 0,-24.21875 0,-2e-6 2.26318,-14.65625 -27.03125,-14.65625 z M 85,75.9375 c 2.661429,-2e-6 4.8125,2.151071 4.8125,4.8125 2e-6,2.661429 -2.151071,4.8125 -4.8125,4.8125 -2.661429,2e-6 -4.8125,-2.151071 -4.8125,-4.8125 -2e-6,-2.661429 2.151071,-4.8125 4.8125,-4.8125 z"
         style="color:#000000;display:inline;overflow:visible;visibility:visible;opacity:1;fill:url(#linearGradient4431);fill-opacity:1;fill-rule:nonzero;stroke:none;stroke-width:1;stroke-linecap:butt;stroke-linejoin:miter;stroke-miterlimit:4;stroke-dasharray:none;stroke-dashoffset:0;stroke-opacity:1;marker:none;marker-start:none;marker-mid:none;marker-end:none"
         inkscape:connector-curvature="0" /><path
         style="color:#000000;display:inline;overflow:visible;visibility:visible;opacity:1;fill:url(#linearGradient4433);fill-opacity:1;fill-rule:nonzero;stroke:none;stroke-width:1;stroke-linecap:butt;stroke-linejoin:miter;stroke-miterlimit:4;stroke-dasharray:none;stroke-dashoffset:0;stroke-opacity:1;marker:none;marker-start:none;marker-mid:none;marker-end:none"
         d="m 100.5461,177.31485 c 28.03174,0 26.28125,-12.15625 26.28125,-12.15625 l -0.0312,-12.59375 h -26.75 v -3.78125 h 37.375 c 0,0 17.9375,2.03427 17.9375,-26.25001 10e-6,-28.284267 -15.65625,-27.281247 -15.65625,-27.281247 h -9.34375 v 13.124997 c 0,0 0.50366,15.65625 -15.40625,15.65625 -15.909902,0 -26.531252,0 -26.531252,0 0,0 -14.90625,-0.24096 -14.90625,14.40626 0,14.6472 0,24.21875 0,24.21875 0,0 -2.26318,14.65625 27.031252,14.65625 z m 14.75,-8.46875 c -2.66143,0 -4.8125,-2.15107 -4.8125,-4.8125 0,-2.66143 2.15107,-4.8125 4.8125,-4.8125 2.66143,0 4.8125,2.15107 4.8125,4.8125 1e-5,2.66143 -2.15107,4.8125 -4.8125,4.8125 z"
         id="path4441"
         inkscape:connector-curvature="0" /></g></g><g
     transform="matrix(1.1567161,-0.66783033,0,1.1567161,-232.32277,351.13619)"
     id="g4423"
     inkscape:label="Calque 1"><g
       transform="translate(428.42338,184.2561)"
       id="g4425"><path
         id="path4427"
         d="M 99.75,67.46875 C 71.718268,67.468752 73.46875,79.625 73.46875,79.625 L 73.5,92.21875 h 26.75 V 96 H 62.875 c 0,0 -17.9375,-2.034276 -17.9375,26.25 -2e-6,28.28427 15.65625,27.28125 15.65625,27.28125 h 9.34375 v -13.125 c 0,0 -0.503652,-15.65625 15.40625,-15.65625 15.9099,0 26.53125,0 26.53125,0 0,0 14.90625,0.24096 14.90625,-14.40625 0,-14.647206 0,-24.21875 0,-24.21875 0,-2e-6 2.26318,-14.65625 -27.03125,-14.65625 z M 85,75.9375 c 2.661429,-2e-6 4.8125,2.151071 4.8125,4.8125 2e-6,2.661429 -2.151071,4.8125 -4.8125,4.8125 -2.661429,2e-6 -4.8125,-2.151071 -4.8125,-4.8125 -2e-6,-2.661429 2.151071,-4.8125 4.8125,-4.8125 z"
         style="color:#000000;display:inline;overflow:visible;visibility:visible;opacity:1;fill:url(#linearGradient5996);fill-opacity:1;fill-rule:nonzero;stroke:none;stroke-width:1;stroke-linecap:butt;stroke-linejoin:miter;stroke-miterlimit:4;stroke-dasharray:none;stroke-dashoffset:0;stroke-opacity:1;marker:none;marker-start:none;marker-mid:none;marker-end:none"
         inkscape:connector-curvature="0" /><path
         style="color:#000000;display:inline;overflow:visible;visibility:visible;opacity:1;fill:url(#linearGradient5998);fill-opacity:1;fill-rule:nonzero;stroke:none;stroke-width:1;stroke-linecap:butt;stroke-linejoin:miter;stroke-miterlimit:4;stroke-dasharray:none;stroke-dashoffset:0;stroke-opacity:1;marker:none;marker-start:none;marker-mid:none;marker-end:none"
         d="m 100.5461,177.31485 c 28.03174,0 26.28125,-12.15625 26.28125,-12.15625 l -0.0312,-12.59375 h -26.75 v -3.78125 h 37.375 c 0,0 17.9375,2.03427 17.9375,-26.25001 10e-6,-28.284267 -15.65625,-27.281247 -15.65625,-27.281247 h -9.34375 v 13.124997 c 0,0 0.50366,15.65625 -15.40625,15.65625 -15.909902,0 -26.531252,0 -26.531252,0 0,0 -14.90625,-0.24096 -14.90625,14.40626 0,14.6472 0,24.21875 0,24.21875 0,0 -2.26318,14.65625 27.031252,14.65625 z m 14.75,-8.46875 c -2.66143,0 -4.8125,-2.15107 -4.8125,-4.8125 0,-2.66143 2.15107,-4.8125 4.8125,-4.8125 2.66143,0 4.8125,2.15107 4.8125,4.8125 1e-5,2.66143 -2.15107,4.8125 -4.8125,4.8125 z"
         id="path4429"
         inkscape:connector-curvature="0" /></g></g><path
     sodipodi:nodetypes="ccccc"
     inkscape:connector-curvature="0"
     id="path4447"
     d="M 373.14322,1.0643623 283.09351,75.746602 475.07331,186.58515 565.12302,111.90517 Z"
     style="fill:#ce936b;fill-opacity:1;fill-rule:nonzero;stroke:#000000;stroke-width:2.12877;stroke-linecap:round;stroke-linejoin:round;stroke-miterlimit:4;stroke-dasharray:none;stroke-opacity:1" /><path
     style="opacity:0.8;fill:#f9f9f9;fill-opacity:1;fill-rule:nonzero;stroke:none;stroke-width:4.25753;stroke-linecap:round;stroke-linejoin:round;stroke-miterlimit:4;stroke-dasharray:none;stroke-opacity:1"
     d="m 174.58791,234.7775 25.03313,14.45491 v 33.80011 l -3.12911,-4.7236 -3.12924,1.10989 -3.12912,-4.72364 -3.12911,1.10989 -3.12912,-4.7236 -3.1292,1.1099 -3.12911,-4.72365 -3.12912,1.1099 z"
     id="path4586"
     inkscape:connector-curvature="0"
     sodipodi:nodetypes="cccccccccccc" /><path
     style="mix-blend-mode:normal;fill:url(#linearGradient992);fill-opacity:1;stroke:#000000;stroke-width:1px;stroke-linecap:butt;stroke-linejoin:miter;stroke-opacity:1"
     d="M 283.0944,297.42425 91.114036,186.58515 283.09351,75.746602 475.07331,186.58515 Z"
     id="path946" /><g
     id="g914"
     transform="matrix(2.1287716,0,0,2.1287716,-436.97009,-157.84138)"
     clip-path="url(#clipPath1020)"
     inkscape:path-effect="#path-effect1024"><path
       d="m 383.34486,209.06453 -45.09178,26.03375 -45.09178,-26.03375 0,-52.06751 45.09178,-26.03375 45.09178,26.03375 z"
       inkscape:randomized="0"
       inkscape:rounded="0"
       inkscape:flatsided="true"
       sodipodi:arg2="1.0471976"
       sodipodi:arg1="0.52359878"
       sodipodi:r2="45.091785"
       sodipodi:r1="52.067505"
       sodipodi:cy="183.03078"
       sodipodi:cx="338.25308"
       sodipodi:sides="6"
       id="path874"
       style="opacity:1;fill:#ce936b;fill-opacity:1;fill-rule:nonzero;stroke:#000000;stroke-width:0.5;stroke-linecap:round;stroke-linejoin:round;stroke-miterlimit:4;stroke-dasharray:none;stroke-opacity:1"
       sodipodi:type="star" /><path
       inkscape:connector-curvature="0"
       id="path876"
       d="m 338.25325,183.03068 22.54591,-13.01677 -4.5566,-2.65975 z"
       style="fill:#57361f;fill-opacity:1;fill-rule:evenodd;stroke:#000000;stroke-width:0.5;stroke-linecap:butt;stroke-linejoin:miter;stroke-miterlimit:4;stroke-dasharray:none;stroke-opacity:1"
       inkscape:original-d="m 338.25325,183.03068 22.54591,-13.01677 -4.5566,-2.65975 z" /><path
       sodipodi:nodetypes="cccccccccccc"
       inkscape:connector-curvature="0"
       id="path878"
       transform="scale(0.26458333)"
       d="m 1374.7617,636.15625 -22.2226,12.83203 v 30.0053 l 2.7778,-4.19329 2.7779,0.98528 2.7778,-4.19329 2.7778,0.98529 2.7778,-4.19329 2.7779,0.98528 2.7778,-4.19329 2.7778,0.98528 z"
       style="opacity:0.8;fill:#f9f9f9;fill-opacity:1;fill-rule:nonzero;stroke:none;stroke-width:3.77953;stroke-linecap:round;stroke-linejoin:round;stroke-miterlimit:4;stroke-dasharray:none;stroke-opacity:1"
       inkscape:original-d="m 1374.7617,636.15625 -22.2226,12.83203 v 30.0053 l 2.7778,-4.19329 2.7779,0.98528 2.7778,-4.19329 2.7778,0.98529 2.7778,-4.19329 2.7779,0.98528 2.7778,-4.19329 2.7778,0.98528 z" /><path
       inkscape:connector-curvature="0"
       id="path880"
       d="m 338.25307,235.09828 1.8e-4,-52.0676 45.09161,-26.03366"
       style="fill:none;fill-rule:evenodd;stroke:#000000;stroke-width:0.5;stroke-linecap:butt;stroke-linejoin:miter;stroke-miterlimit:4;stroke-dasharray:none;stroke-opacity:1"
       inkscape:original-d="m 338.25307,235.09828 1.8e-4,-52.0676 45.09161,-26.03366" /><g
       transform="matrix(0.27168708,-0.15685861,0,0.27168708,217.19313,195.64643)"
       id="g888"
       inkscape:label="Calque 1"><g
         transform="translate(428.42338,184.2561)"
         id="g886"><path
           id="path882"
           d="M 99.75,67.46875 C 71.718268,67.468752 73.46875,79.625 73.46875,79.625 L 73.5,92.21875 h 26.75 V 96 H 62.875 c 0,0 -17.9375,-2.034276 -17.9375,26.25 -2e-6,28.28427 15.65625,27.28125 15.65625,27.28125 h 9.34375 v -13.125 c 0,0 -0.503652,-15.65625 15.40625,-15.65625 15.9099,0 26.53125,0 26.53125,0 0,0 14.90625,0.24096 14.90625,-14.40625 0,-14.647206 0,-24.21875 0,-24.21875 0,-2e-6 2.26318,-14.65625 -27.03125,-14.65625 z M 85,75.9375 c 2.661429,-2e-6 4.8125,2.151071 4.8125,4.8125 2e-6,2.661429 -2.151071,4.8125 -4.8125,4.8125 -2.661429,2e-6 -4.8125,-2.151071 -4.8125,-4.8125 -2e-6,-2.661429 2.151071,-4.8125 4.8125,-4.8125 z"
           style="color:#000000;display:inline;overflow:visible;visibility:visible;opacity:1;fill:url(#linearGradient916);fill-opacity:1;fill-rule:nonzero;stroke:none;stroke-width:1;stroke-linecap:butt;stroke-linejoin:miter;stroke-miterlimit:4;stroke-dasharray:none;stroke-dashoffset:0;stroke-opacity:1;marker:none;marker-start:none;marker-mid:none;marker-end:none"
           inkscape:connector-curvature="0"
           inkscape:original-d="M 99.75,67.46875 C 71.718268,67.468752 73.46875,79.625 73.46875,79.625 L 73.5,92.21875 h 26.75 V 96 H 62.875 c 0,0 -17.9375,-2.034276 -17.9375,26.25 -2e-6,28.28427 15.65625,27.28125 15.65625,27.28125 h 9.34375 v -13.125 c 0,0 -0.503652,-15.65625 15.40625,-15.65625 15.9099,0 26.53125,0 26.53125,0 0,0 14.90625,0.24096 14.90625,-14.40625 0,-14.647206 0,-24.21875 0,-24.21875 0,-2e-6 2.26318,-14.65625 -27.03125,-14.65625 z M 85,75.9375 c 2.661429,-2e-6 4.8125,2.151071 4.8125,4.8125 2e-6,2.661429 -2.151071,4.8125 -4.8125,4.8125 -2.661429,2e-6 -4.8125,-2.151071 -4.8125,-4.8125 -2e-6,-2.661429 2.151071,-4.8125 4.8125,-4.8125 z" /><path
           style="color:#000000;display:inline;overflow:visible;visibility:visible;opacity:1;fill:url(#linearGradient918);fill-opacity:1;fill-rule:nonzero;stroke:none;stroke-width:1;stroke-linecap:butt;stroke-linejoin:miter;stroke-miterlimit:4;stroke-dasharray:none;stroke-dashoffset:0;stroke-opacity:1;marker:none;marker-start:none;marker-mid:none;marker-end:none"
           d="m 100.5461,177.31485 c 28.03174,0 26.28125,-12.15625 26.28125,-12.15625 l -0.0312,-12.59375 -26.75,0 v -3.78125 l 37.375,0 c 0,0 17.9375,2.03427 17.9375,-26.25001 10e-6,-28.284267 -15.65625,-27.281247 -15.65625,-27.281247 l -9.34375,0 v 13.124997 c 0,0 0.50366,15.65625 -15.40625,15.65625 -15.909902,0 -26.531252,0 -26.531252,0 0,0 -14.90625,-0.24096 -14.90625,14.40626 0,14.6472 0,24.21875 0,24.21875 0,0 -2.26318,14.65625 27.031252,14.65625 z m 14.75,-8.46875 c -2.66143,0 -4.8125,-2.15107 -4.8125,-4.8125 0,-2.66143 2.15107,-4.8125 4.8125,-4.8125 2.66143,0 4.8125,2.15107 4.8125,4.8125 1e-5,2.66143 -2.15107,4.8125 -4.8125,4.8125 z"
           id="path884"
           inkscape:connector-curvature="0"
           inkscape:original-d="m 100.5461,177.31485 c 28.03174,0 26.28125,-12.15625 26.28125,-12.15625 l -0.0312,-12.59375 h -26.75 v -3.78125 h 37.375 c 0,0 17.9375,2.03427 17.9375,-26.25001 10e-6,-28.284267 -15.65625,-27.281247 -15.65625,-27.281247 h -9.34375 v 13.124997 c 0,0 0.50366,15.65625 -15.40625,15.65625 -15.909902,0 -26.531252,0 -26.531252,0 0,0 -14.90625,-0.24096 -14.90625,14.40626 0,14.6472 0,24.21875 0,24.21875 0,0 -2.26318,14.65625 27.031252,14.65625 z m 14.75,-8.46875 c -2.66143,0 -4.8125,-2.15107 -4.8125,-4.8125 0,-2.66143 2.15107,-4.8125 4.8125,-4.8125 2.66143,0 4.8125,2.15107 4.8125,4.8125 1e-5,2.66143 -2.15107,4.8125 -4.8125,4.8125 z" /></g></g><g
       transform="matrix(0.27168708,0.15685861,0,0.27168708,172.1013,29.824469)"
       id="g896"
       inkscape:label="Calque 1"><g
         transform="translate(428.42338,184.2561)"
         id="g894"><path
           id="path890"
           d="M 99.75,67.46875 C 71.718268,67.468752 73.46875,79.625 73.46875,79.625 L 73.5,92.21875 l 26.75,0 V 96 H 62.875 c 0,0 -17.9375,-2.034276 -17.9375,26.25 -2e-6,28.28427 15.65625,27.28125 15.65625,27.28125 l 9.34375,0 v -13.125 c 0,0 -0.503652,-15.65625 15.40625,-15.65625 15.9099,0 26.53125,0 26.53125,0 0,0 14.90625,0.24096 14.90625,-14.40625 0,-14.647206 0,-24.21875 0,-24.21875 0,-2e-6 2.26318,-14.65625 -27.03125,-14.65625 z M 85,75.9375 c 2.661429,-2e-6 4.8125,2.151071 4.8125,4.8125 2e-6,2.661429 -2.151071,4.8125 -4.8125,4.8125 -2.661429,2e-6 -4.8125,-2.151071 -4.8125,-4.8125 -2e-6,-2.661429 2.151071,-4.8125 4.8125,-4.8125 z"
           style="color:#000000;display:inline;overflow:visible;visibility:visible;opacity:1;fill:url(#linearGradient920);fill-opacity:1;fill-rule:nonzero;stroke:none;stroke-width:1;stroke-linecap:butt;stroke-linejoin:miter;stroke-miterlimit:4;stroke-dasharray:none;stroke-dashoffset:0;stroke-opacity:1;marker:none;marker-start:none;marker-mid:none;marker-end:none"
           inkscape:connector-curvature="0"
           inkscape:original-d="M 99.75,67.46875 C 71.718268,67.468752 73.46875,79.625 73.46875,79.625 L 73.5,92.21875 h 26.75 V 96 H 62.875 c 0,0 -17.9375,-2.034276 -17.9375,26.25 -2e-6,28.28427 15.65625,27.28125 15.65625,27.28125 h 9.34375 v -13.125 c 0,0 -0.503652,-15.65625 15.40625,-15.65625 15.9099,0 26.53125,0 26.53125,0 0,0 14.90625,0.24096 14.90625,-14.40625 0,-14.647206 0,-24.21875 0,-24.21875 0,-2e-6 2.26318,-14.65625 -27.03125,-14.65625 z M 85,75.9375 c 2.661429,-2e-6 4.8125,2.151071 4.8125,4.8125 2e-6,2.661429 -2.151071,4.8125 -4.8125,4.8125 -2.661429,2e-6 -4.8125,-2.151071 -4.8125,-4.8125 -2e-6,-2.661429 2.151071,-4.8125 4.8125,-4.8125 z" /><path
           style="color:#000000;display:inline;overflow:visible;visibility:visible;opacity:1;fill:url(#linearGradient922);fill-opacity:1;fill-rule:nonzero;stroke:none;stroke-width:1;stroke-linecap:butt;stroke-linejoin:miter;stroke-miterlimit:4;stroke-dasharray:none;stroke-dashoffset:0;stroke-opacity:1;marker:none;marker-start:none;marker-mid:none;marker-end:none"
           d="m 100.5461,177.31485 c 28.03174,0 26.28125,-12.15625 26.28125,-12.15625 l -0.0312,-12.59375 -26.75,0 v -3.78125 l 37.375,0 c 0,0 17.9375,2.03427 17.9375,-26.25001 10e-6,-28.284267 -15.65625,-27.281247 -15.65625,-27.281247 h -9.34375 v 13.124997 c 0,0 0.50366,15.65625 -15.40625,15.65625 -15.909902,0 -26.531252,0 -26.531252,0 0,0 -14.90625,-0.24096 -14.90625,14.40626 0,14.6472 0,24.21875 0,24.21875 0,0 -2.26318,14.65625 27.031252,14.65625 z m 14.75,-8.46875 c -2.66143,0 -4.8125,-2.15107 -4.8125,-4.8125 0,-2.66143 2.15107,-4.8125 4.8125,-4.8125 2.66143,0 4.8125,2.15107 4.8125,4.8125 1e-5,2.66143 -2.15107,4.8125 -4.8125,4.8125 z"
           id="path892"
           inkscape:connector-curvature="0"
           inkscape:original-d="m 100.5461,177.31485 c 28.03174,0 26.28125,-12.15625 26.28125,-12.15625 l -0.0312,-12.59375 h -26.75 v -3.78125 h 37.375 c 0,0 17.9375,2.03427 17.9375,-26.25001 10e-6,-28.284267 -15.65625,-27.281247 -15.65625,-27.281247 h -9.34375 v 13.124997 c 0,0 0.50366,15.65625 -15.40625,15.65625 -15.909902,0 -26.531252,0 -26.531252,0 0,0 -14.90625,-0.24096 -14.90625,14.40626 0,14.6472 0,24.21875 0,24.21875 0,0 -2.26318,14.65625 27.031252,14.65625 z m 14.75,-8.46875 c -2.66143,0 -4.8125,-2.15107 -4.8125,-4.8125 0,-2.66143 2.15107,-4.8125 4.8125,-4.8125 2.66143,0 4.8125,2.15107 4.8125,4.8125 1e-5,2.66143 -2.15107,4.8125 -4.8125,4.8125 z" /></g></g><path
       transform="scale(0.26458333)"
       id="path898"
       d="m 1204.1387,537.875 -10.9141,6.30078 170.4258,98.39453 11.0684,-6.39062 z"
       style="opacity:0.8;fill:#f9f9f9;fill-opacity:1;fill-rule:nonzero;stroke:none;stroke-width:4.27475;stroke-linecap:round;stroke-linejoin:round;stroke-miterlimit:4;stroke-dasharray:none;stroke-opacity:1"
       inkscape:connector-curvature="0"
       inkscape:original-d="m 1204.1387,537.875 -10.9141,6.30078 170.4258,98.39453 11.0684,-6.39062 z" /><path
       id="path900"
       transform="scale(0.26458333)"
       d="m 1352.5352,537.76172 -170.4219,98.39453 22.2246,12.83203 170.4238,-98.39453 z"
       style="opacity:0.8;fill:#f9f9f9;fill-opacity:1;fill-rule:nonzero;stroke:none;stroke-width:3.77953;stroke-linecap:round;stroke-linejoin:round;stroke-miterlimit:4;stroke-dasharray:none;stroke-opacity:1"
       inkscape:connector-curvature="0"
       inkscape:original-d="m 1352.5352,537.76172 -170.4219,98.39453 22.2246,12.83203 170.4238,-98.39453 z" /><path
       inkscape:connector-curvature="0"
       id="path902"
       d="m 338.25328,130.96255 -22.54592,13.01729 45.0918,26.03355 22.54592,-13.01677 z"
       style="opacity:1;fill:none;fill-opacity:1;fill-rule:nonzero;stroke:#000000;stroke-width:0.5;stroke-linecap:round;stroke-linejoin:round;stroke-miterlimit:4;stroke-dasharray:none;stroke-opacity:1"
       inkscape:original-d="m 338.25328,130.96255 -22.54592,13.01729 45.0918,26.03355 22.54592,-13.01677 z" /><path
       sodipodi:nodetypes="ccccc"
       inkscape:connector-curvature="0"
       id="path904"
       d="m 314.31212,139.45594 -21.15069,17.54121 45.09182,26.03353 21.15069,-17.54068 z"
       style="opacity:1;fill:#ce936b;fill-opacity:1;fill-rule:nonzero;stroke:#000000;stroke-width:0.5;stroke-linecap:round;stroke-linejoin:round;stroke-miterlimit:4;stroke-dasharray:none;stroke-opacity:1"
       inkscape:original-d="m 314.31212,139.45594 -21.15069,17.54121 45.09182,26.03353 21.15069,-17.54068 z" /><path
       sodipodi:nodetypes="ccccc"
       inkscape:connector-curvature="0"
       id="path906"
       d="m 314.08534,139.58822 -2.71831,2.18536 45.02672,25.99635 2.71777,-2.18536 z"
       style="opacity:0.8;fill:#f9f9f9;fill-opacity:1;fill-rule:nonzero;stroke:none;stroke-width:1;stroke-linecap:round;stroke-linejoin:round;stroke-miterlimit:4;stroke-dasharray:none;stroke-opacity:1"
       inkscape:original-d="m 314.08534,139.58822 -2.71831,2.18536 45.02672,25.99635 2.71777,-2.18536 z" /><path
       style="opacity:0.8;fill:#f9f9f9;fill-opacity:1;fill-rule:nonzero;stroke:none;stroke-width:1;stroke-linecap:round;stroke-linejoin:round;stroke-miterlimit:4;stroke-dasharray:none;stroke-opacity:1"
       d="m 312.76747,168.31634 5.87973,3.39514 v 7.9389 l -0.73496,-1.10947 -0.73499,0.26069 -0.73496,-1.10948 -0.73496,0.26069 -0.73496,-1.10947 -0.73498,0.26069 -0.73496,-1.10948 -0.73496,0.26069 z"
       id="path908"
       inkscape:connector-curvature="0"
       sodipodi:nodetypes="cccccccccccc"
       inkscape:original-d="m 312.76747,168.31634 5.87973,3.39514 v 7.9389 l -0.73496,-1.10947 -0.73499,0.26069 -0.73496,-1.10948 -0.73496,0.26069 -0.73496,-1.10947 -0.73498,0.26069 -0.73496,-1.10948 -0.73496,0.26069 z" /><path
       sodipodi:nodetypes="ccccc"
       inkscape:connector-curvature="0"
       id="path910"
       d="m 318.6472,171.71148 21.0561,-17.44603 -5.88026,-3.39514 -21.05557,17.44603 c 5.88026,3.39514 0,0 5.87973,3.39514 z"
       style="opacity:0.8;fill:#f9f9f9;fill-opacity:1;fill-rule:nonzero;stroke:none;stroke-width:1;stroke-linecap:round;stroke-linejoin:round;stroke-miterlimit:4;stroke-dasharray:none;stroke-opacity:1"
       inkscape:original-d="m 318.6472,171.71148 21.0561,-17.44603 -5.88026,-3.39514 -21.05557,17.44603 c 5.88026,3.39514 0,0 5.87973,3.39514 z" /><path
       style="opacity:1;fill:none;fill-opacity:1;fill-rule:nonzero;stroke:#000000;stroke-width:0.5;stroke-linecap:round;stroke-linejoin:round;stroke-miterlimit:4;stroke-dasharray:none;stroke-opacity:1"
       d="m 314.31212,139.45594 -21.15069,17.54121 45.09182,26.03353 21.15069,-17.54068 z"
       id="path912"
       inkscape:connector-curvature="0"
       sodipodi:nodetypes="ccccc"
       inkscape:original-d="m 314.31212,139.45594 -21.15069,17.54121 45.09182,26.03353 21.15069,-17.54068 z" /></g><path
     sodipodi:nodetypes="ccccc"
     inkscape:connector-curvature="0"
     id="path982"
     d="M 91.114016,186.58515 1.0643058,111.90291 193.04411,1.0643623 283.09382,75.744342 Z"
     style="fill:#ce936b;fill-opacity:1;fill-rule:nonzero;stroke:#000000;stroke-width:2.12877;stroke-linecap:round;stroke-linejoin:round;stroke-miterlimit:4;stroke-dasharray:none;stroke-opacity:1" /><path
     sodipodi:nodetypes="ccccc"
     inkscape:connector-curvature="0"
     id="path984"
     d="m 475.07332,186.58515 90.04971,74.68224 -191.9798,110.83855 -90.04971,-74.67998 z"
     style="fill:#ce936b;fill-opacity:1;fill-rule:nonzero;stroke:#000000;stroke-width:2.12877;stroke-linecap:round;stroke-linejoin:round;stroke-miterlimit:4;stroke-dasharray:none;stroke-opacity:1" /><path
     sodipodi:nodetypes="ccccc"
     inkscape:connector-curvature="0"
     id="path944"
     d="M 91.114036,186.58515 1.0643258,261.26739 193.04413,372.10594 283.09384,297.42596 Z"
     style="fill:#ce936b;fill-opacity:1;fill-rule:nonzero;stroke:#000000;stroke-width:2.12877;stroke-linecap:round;stroke-linejoin:round;stroke-miterlimit:4;stroke-dasharray:none;stroke-opacity:1" /></g></svg>
